<svg xmlns="http://www.w3.org/2000/svg" viewBox="0 0 47.5 47.5" id="green"><defs><clipPath id="a"><path d="M0 38h38V0H0v38Z"></path></clipPath></defs><g clip-path="url(#a)" transform="matrix(1.25 0 0 -1.25 0 47.5)"><path fill="#77b255" d="M25 30c-3 0-3-1-6-1s-3 1-6 1c-4 0-9-2-9-9C4 10 10 1 14 1c3 0 3 1 5 1s2-1 5-1c4 0 10 9 10 20 0 7-5 9-9 9"></path><path fill="#3e721d" d="M18.311 29.12s-1.775 4.674-6.58 6.06c-3.843 1.108-6.318-.26-6.318-.26s3.012-3.99 5.895-4.821c2.882-.831 7.003-.979 7.003-.979"></path><path fill="#662113" d="M19 27a1 1 0 0 0-1 1c0 3.441 1.2 6.615 3.293 8.707a1 1 0 1 0 1.415-1.414C20.987 33.573 20 30.915 20 28a1 1 0 0 0-1-1"></path></g></svg>