<svg xmlns="http://www.w3.org/2000/svg" data-name="Layer 1" viewBox="0 0 512 512"><path fill="#e0e0e2" d="M468.58 256c0 115.74-92.48 209.87-207.58 212.52-1.66.04-3.33.06-5 .06a212.578 212.578 0 0 1-150.5-362.71l.02-.03A211.969 211.969 0 0 1 256 43.42c117.41 0 212.58 95.17 212.58 212.58Z"/><path fill="#afaeb3" d="M180.29 93.03a38.497 38.497 0 0 1-74.79 12.84l.02-.03a213.203 213.203 0 0 1 60.68-42.58 38.417 38.417 0 0 1 14.09 29.77Z"/><circle cx="398.436" cy="250.682" r="21.387" fill="#afaeb3"/><circle cx="141.795" cy="329.998" r="25.664" fill="#afaeb3"/><path fill="#afaeb3" d="M268.4 442.92a47.743 47.743 0 0 1-7.4 25.6c-1.66.04-3.33.06-5 .06a211.98 211.98 0 0 1-82.5-16.6l-.05-.03a47.11 47.11 0 0 1-.86-9.03 47.905 47.905 0 1 1 95.81 0Z"/><circle cx="156.338" cy="205.1" r="30.797" fill="#afaeb3"/><circle cx="336.842" cy="378.76" r="15.398" fill="#afaeb3"/><circle cx="280.688" cy="261.867" r="40.635" fill="#afaeb3"/><path fill="#4ebaea" d="M458 66.5h-16.513a59.49 59.49 0 0 0-118.974 0H302a46.5 46.5 0 0 0-46.5 46.5 46.5 46.5 0 0 0 46.5 46.5h156a46.5 46.5 0 0 0 46.5-46.5A46.5 46.5 0 0 0 458 66.5zM181.615 424.536h-14.198a51.15 51.15 0 0 0-102.298 0H47.482A39.982 39.982 0 0 0 7.5 464.518 39.982 39.982 0 0 0 47.482 504.5h134.133a39.982 39.982 0 0 0 39.982-39.982 39.982 39.982 0 0 0-39.982-39.982z"/><path fill="#2c2b2d" d="M328.822 261.867a48.135 48.135 0 1 0-48.135 48.135 48.19 48.19 0 0 0 48.135-48.135Zm-48.135 33.135a33.135 33.135 0 1 1 33.135-33.135 33.172 33.172 0 0 1-33.135 33.135ZM512 113a54.06 54.06 0 0 0-54-54h-9.488a66.97 66.97 0 0 0-129.76-13.995 220.868 220.868 0 0 0-155.337 11.284 7.446 7.446 0 0 0-.765.356 219.74 219.74 0 0 0-62.183 43.657c-.058.052-.11.11-.167.164l-.109.106-.124.128c-.05.052-.102.101-.15.154a220.08 220.08 0 0 0-24.011 281.652 58.63 58.63 0 0 0-17.751 34.53H47.482a47.482 47.482 0 0 0 0 94.964h134.133a47.56 47.56 0 0 0 46.461-37.69A222.3 222.3 0 0 0 256 476.08c1.667 0 3.332-.022 4.983-.06l.01.001.015-.001c.055-.001.11 0 .165-.002A220.188 220.188 0 0 0 457.339 167H458a54.06 54.06 0 0 0 54-54ZM164.796 72.267a30.991 30.991 0 1 1-50.35 35.348 204.615 204.615 0 0 1 50.35-35.348ZM181.616 497H47.481a32.482 32.482 0 0 1 0-64.964H65.12a7.5 7.5 0 0 0 7.5-7.438 43.65 43.65 0 0 1 87.297 0 7.5 7.5 0 0 0 7.5 7.438h8.721c.086.001.172.002.258 0h5.22a32.482 32.482 0 1 1 0 64.964Zm74.963-35.924a206.558 206.558 0 0 1-27.778-1.8 47.577 47.577 0 0 0-39.823-41.666 40.406 40.406 0 0 1 67.6 43.466ZM461.08 256c0 106.381-83.253 195.57-187.984 204.352a55.416 55.416 0 0 0-99.382-47.14 58.86 58.86 0 0 0-57.445-46.906 58.148 58.148 0 0 0-28.274 7.316 205.105 205.105 0 0 1 15.65-254.906 45.99 45.99 0 1 0 75.28-52.819A206.078 206.078 0 0 1 313.193 59H302a54 54 0 0 0 0 108h138.803a202.825 202.825 0 0 1 20.277 89ZM302 152a39 39 0 0 1 0-78h20.513a7.5 7.5 0 0 0 7.5-7.438 51.99 51.99 0 0 1 103.975 0 7.5 7.5 0 0 0 7.5 7.438H458a39 39 0 0 1 0 78Zm34.842 203.861a22.898 22.898 0 1 0 22.898 22.899 22.924 22.924 0 0 0-22.898-22.899Zm0 30.797a7.898 7.898 0 1 1 7.898-7.898 7.908 7.908 0 0 1-7.898 7.898Zm61.594-164.863a28.887 28.887 0 1 0 28.886 28.887 28.92 28.92 0 0 0-28.886-28.887Zm0 42.773a13.887 13.887 0 1 1 13.886-13.886 13.902 13.902 0 0 1-13.886 13.886Zm-256.641 32.266a33.164 33.164 0 1 0 33.164 33.164 33.202 33.202 0 0 0-33.164-33.164Zm0 51.328a18.164 18.164 0 1 1 18.164-18.164 18.185 18.185 0 0 1-18.164 18.164Zm14.543-181.36a38.297 38.297 0 1 0 38.297 38.298 38.34 38.34 0 0 0-38.297-38.297Zm0 61.595a23.297 23.297 0 1 1 23.297-23.297 23.323 23.323 0 0 1-23.297 23.296Z"/></svg>