<svg width="32" height="32" viewBox="0 0 32 32"  xmlns="http://www.w3.org/2000/svg">
<path d="M26.749 24.93C28.1851 23.2021 29.184 21.1537 29.661 18.9582C30.1381 16.7626 30.0793 14.4845 29.4897 12.3164C28.9001 10.1484 27.7969 8.15423 26.2736 6.50268C24.7504 4.85112 22.8517 3.59075 20.7383 2.82818C18.6248 2.06561 16.3588 1.82328 14.132 2.12168C11.9051 2.42008 9.78281 3.25043 7.94471 4.5425C6.10661 5.83457 4.60674 7.55034 3.57199 9.54467C2.53723 11.539 1.99803 13.7532 2 16C2.00075 19.2662 3.15174 22.4278 5.251 24.93L5.231 24.947C5.301 25.031 5.381 25.103 5.453 25.186C5.543 25.289 5.64 25.386 5.733 25.486C6.013 25.79 6.301 26.082 6.603 26.356C6.695 26.44 6.79 26.518 6.883 26.598C7.203 26.874 7.532 27.136 7.873 27.38C7.917 27.41 7.957 27.449 8.001 27.48V27.468C10.3431 29.1162 13.1371 30.0007 16.001 30.0007C18.8649 30.0007 21.6589 29.1162 24.001 27.468V27.48C24.045 27.449 24.084 27.41 24.129 27.38C24.469 27.135 24.799 26.874 25.119 26.598C25.212 26.518 25.307 26.439 25.399 26.356C25.701 26.081 25.989 25.79 26.269 25.486C26.362 25.386 26.458 25.289 26.549 25.186C26.62 25.103 26.701 25.031 26.771 24.946L26.749 24.93ZM16 8C16.89 8 17.76 8.26392 18.5001 8.75838C19.2401 9.25285 19.8169 9.95566 20.1575 10.7779C20.4981 11.6002 20.5872 12.505 20.4135 13.3779C20.2399 14.2508 19.8113 15.0526 19.182 15.682C18.5526 16.3113 17.7508 16.7399 16.8779 16.9135C16.005 17.0872 15.1002 16.998 14.2779 16.6575C13.4557 16.3169 12.7529 15.7401 12.2584 15.0001C11.7639 14.26 11.5 13.39 11.5 12.5C11.5 11.3065 11.9741 10.1619 12.818 9.31802C13.6619 8.4741 14.8065 8 16 8V8ZM8.007 24.93C8.02435 23.617 8.55795 22.3636 9.49236 21.4409C10.4268 20.5183 11.6869 20.0007 13 20H19C20.3131 20.0007 21.5732 20.5183 22.5076 21.4409C23.4421 22.3636 23.9757 23.617 23.993 24.93C21.7998 26.9063 18.9523 28.0001 16 28.0001C13.0477 28.0001 10.2002 26.9063 8.007 24.93V24.93Z" fill="currentColor"/>
</svg>
